Results
version=1
nRows=14
nColumns=21
inDegrees=yes
endheader
time	Thorax_pitch	Thorax_roll	Thorax_yaw	Thorax_Tx	Thorax_Ty	Thorax_Tz	L_shoulder_flex-ext	L_shoulder_adb-add	L_shoulder_LAR	L_elbow_flex-ext	L_forearm_pron-sup	L_wrist_flex-ext	L_MCP_flex-ext	R_shoulder_flex-ext	R_shoulder_adb-add	R_shoulder_LAR	R_elbow_flex-ext	R_forearm_pron-sup	R_wrist_flex-ext	R_MCP_flex-ext
      1.05000000	      0.00000000	      0.00000000	    169.51100684	      0.15606568	      0.12051871	      0.16148535	      0.00000000	      0.00000000	      0.00000000	    -67.49998635	     49.99999299	      0.00000000	      0.00000000	     30.27850225	    -12.75001879	     -4.04046483	    -92.30893392	    174.43280913	    -62.52546356	     17.54209495
      1.05010000	      0.00000000	      0.00000000	    169.49272183	      0.15596603	      0.12055481	      0.16147995	      0.00000000	      0.00000000	      0.00000000	    -67.49998635	     49.99999299	      0.00000000	      0.00000000	     30.27244544	    -12.73395727	     -4.02607188	    -92.31559536	    174.46572996	    -62.57328075	     17.25765723
      1.05020000	      0.00000000	      0.00000000	    169.48965088	      0.15588927	      0.12057224	      0.16150365	      0.00000000	      0.00000000	      0.00000000	    -67.49998635	     49.99999299	      0.00000000	      0.00000000	     30.27798026	    -12.73839984	     -4.00842998	    -92.30338089	    174.45592417	    -62.49987023	     17.54189870
      1.05030000	      0.00000000	      0.00000000	    169.47910711	      0.15577474	      0.12060049	      0.16151981	      0.00000000	      0.00000000	      0.00000000	    -67.49998635	     49.99999299	      0.00000000	      0.00000000	     30.28354997	    -12.73300122	     -3.98470188	    -92.25847519	    174.47204807	    -62.56412453	     17.67412296
      1.05040000	      0.00000000	      0.00000000	    169.46312027	      0.15568020	      0.12065105	      0.16151035	      0.00000000	      0.00000000	      0.00000000	    -67.49998635	     49.99999299	      0.00000000	      0.00000000	     30.28779692	    -12.71442442	     -3.97529557	    -92.29837472	    174.49981874	    -62.52434140	     17.46943802
      1.05050000	      0.00000000	      0.00000000	    169.45515695	      0.15558173	      0.12066469	      0.16148380	      0.00000000	      0.00000000	      0.00000000	    -67.49998635	     49.99999299	      0.00000000	      0.00000000	     30.29064429	    -12.68758228	     -3.94911284	    -92.30011729	    174.49275204	    -62.51124716	     17.67606640
      1.05060000	      0.00000000	      0.00000000	    169.43335794	      0.15547956	      0.12067710	      0.16152164	      0.00000000	      0.00000000	      0.00000000	    -67.49998635	     49.99999299	      0.00000000	      0.00000000	     30.26696072	    -12.70137618	     -3.92835069	    -92.23867414	    174.49135955	    -62.62511974	     17.71618456
      1.05070000	      0.00000000	      0.00000000	    169.45069132	      0.15541291	      0.12072179	      0.16156273	      0.00000000	      0.00000000	      0.00000000	    -67.49998635	     49.99999299	      0.00000000	      0.00000000	     30.31370137	    -12.70752285	     -3.92483164	    -92.23939811	    174.55468323	    -62.52498285	     17.65049243
      1.05080000	      0.00000000	      0.00000000	    169.40557783	      0.15527125	      0.12075187	      0.16152315	      0.00000000	      0.00000000	      0.00000000	    -67.49998635	     49.99999299	      0.00000000	      0.00000000	     30.26473395	    -12.67021195	     -3.88457003	    -92.23351285	    174.52191612	    -62.60436149	     17.70319071
      1.05090000	      0.00000000	      0.00000000	    169.37375363	      0.15520568	      0.12075796	      0.16154058	      0.00000000	      0.00000000	      0.00000000	    -67.49998635	     49.99999299	      0.00000000	      0.00000000	     30.19881985	    -12.66984902	     -3.82259243	    -92.20768624	    174.37319051	    -62.57936223	     18.12731982
      1.05100000	      0.00000000	      0.00000000	    169.37725132	      0.15503100	      0.12083070	      0.16147298	      0.00000000	      0.00000000	      0.00000000	    -67.49998635	     49.99999299	      0.00000000	      0.00000000	     30.30025673	    -12.61898732	     -3.87536244	    -92.25524948	    174.56559637	    -62.53028042	     17.99536111
      1.05110000	      0.00000000	      0.00000000	    169.35359690	      0.15498156	      0.12083240	      0.16154978	      0.00000000	      0.00000000	      0.00000000	    -67.49998635	     49.99999299	      0.00000000	      0.00000000	     30.23278352	    -12.64856741	     -3.82095009	    -92.18056624	    174.58967888	    -62.83405965	     17.28156928
      1.05120000	      0.00000000	      0.00000000	    169.35227163	      0.15490893	      0.12085134	      0.16155947	      0.00000000	      0.00000000	      0.00000000	    -67.49998635	     49.99999299	      0.00000000	      0.00000000	     30.23715239	    -12.64759100	     -3.81422572	    -92.17337137	    174.56311737	    -62.71885865	     17.76316047
      1.05130000	      0.00000000	      0.00000000	    169.34546602	      0.15481495	      0.12089019	      0.16156401	      0.00000000	      0.00000000	      0.00000000	    -67.49998635	     49.99999299	      0.00000000	      0.00000000	     30.24390050	    -12.63888690	     -3.78435530	    -92.17280389	    174.58082057	    -62.72957767	     17.55496835
